<?xml version="1.0" encoding="UTF-8"?>
<svg version="1.1" xmlns="http://www.w3.org/2000/svg" width="500" height="500">
<path d="M0 0 C0.98994965 0.00054382 1.97989929 0.00108765 2.99984741 0.00164795 C19.05496324 0.04209761 34.44764478 0.96884556 50.1875 4.375 C51.20457031 4.58930664 52.22164063 4.80361328 53.26953125 5.02441406 C68.03043827 8.21332699 82.17746417 12.7623425 96.1875 18.375 C96.96786621 18.68663086 97.74823242 18.99826172 98.55224609 19.31933594 C116.66321957 26.6758242 133.6720845 36.50076916 149.1875 48.375 C149.76016602 48.80635254 150.33283203 49.23770508 150.92285156 49.68212891 C159.83561708 56.40721562 168.14237968 63.63763054 176.1875 71.375 C176.67879395 71.84437988 177.17008789 72.31375977 177.67626953 72.79736328 C184.40342163 79.25316807 190.46990272 86.01571637 196.1875 93.375 C196.63706055 93.94283203 197.08662109 94.51066406 197.54980469 95.09570312 C209.78404491 110.58522866 219.95115202 127.4390152 228.1875 145.375 C228.6817749 146.44621094 228.6817749 146.44621094 229.18603516 147.5390625 C243.81047088 179.65547036 250.63538077 214.01516915 250.5625 249.1875 C250.56168427 250.67242447 250.56168427 250.67242447 250.56085205 252.18734741 C250.52040239 268.24246324 249.59365444 283.63514478 246.1875 299.375 C245.97319336 300.39207031 245.75888672 301.40914063 245.53808594 302.45703125 C242.34917301 317.21793827 237.8001575 331.36496417 232.1875 345.375 C231.72005371 346.54554932 231.72005371 346.54554932 231.24316406 347.73974609 C223.8866758 365.85071957 214.06173084 382.8595845 202.1875 398.375 C201.75614746 398.94766602 201.32479492 399.52033203 200.88037109 400.11035156 C194.15528438 409.02311708 186.92486946 417.32987968 179.1875 425.375 C178.48343018 426.11194092 178.48343018 426.11194092 177.76513672 426.86376953 C171.30933193 433.59092163 164.54678363 439.65740272 157.1875 445.375 C156.61966797 445.82456055 156.05183594 446.27412109 155.46679688 446.73730469 C139.97727134 458.97154491 123.1234848 469.13865202 105.1875 477.375 C104.47335937 477.7045166 103.75921875 478.0340332 103.0234375 478.37353516 C70.90702964 492.99797088 36.54733085 499.82288077 1.375 499.75 C0.38505035 499.74945618 -0.60489929 499.74891235 -1.62484741 499.74835205 C-17.67996324 499.70790239 -33.07264478 498.78115444 -48.8125 495.375 C-50.33810547 495.05354004 -50.33810547 495.05354004 -51.89453125 494.72558594 C-66.65543827 491.53667301 -80.80246417 486.9876575 -94.8125 481.375 C-95.59286621 481.06336914 -96.37323242 480.75173828 -97.17724609 480.43066406 C-115.28821957 473.0741758 -132.2970845 463.24923084 -147.8125 451.375 C-148.38516602 450.94364746 -148.95783203 450.51229492 -149.54785156 450.06787109 C-158.46061708 443.34278438 -166.76737968 436.11236946 -174.8125 428.375 C-175.30379395 427.90562012 -175.79508789 427.43624023 -176.30126953 426.95263672 C-183.02842163 420.49683193 -189.09490272 413.73428363 -194.8125 406.375 C-195.26206055 405.80716797 -195.71162109 405.23933594 -196.17480469 404.65429688 C-208.40904491 389.16477134 -218.57615202 372.3109848 -226.8125 354.375 C-227.1420166 353.66085937 -227.4715332 352.94671875 -227.81103516 352.2109375 C-242.43547088 320.09452964 -249.26038077 285.73483085 -249.1875 250.5625 C-249.18695618 249.57255035 -249.18641235 248.58260071 -249.18585205 247.56265259 C-249.14540239 231.50753676 -248.21865444 216.11485522 -244.8125 200.375 C-244.59819336 199.35792969 -244.38388672 198.34085938 -244.16308594 197.29296875 C-240.97417301 182.53206173 -236.4251575 168.38503583 -230.8125 154.375 C-230.50086914 153.59463379 -230.18923828 152.81426758 -229.86816406 152.01025391 C-222.5116758 133.89928043 -212.68673084 116.8904155 -200.8125 101.375 C-200.38114746 100.80233398 -199.94979492 100.22966797 -199.50537109 99.63964844 C-192.78028438 90.72688292 -185.54986946 82.42012032 -177.8125 74.375 C-177.10843018 73.63805908 -177.10843018 73.63805908 -176.39013672 72.88623047 C-169.93433193 66.15907837 -163.17178363 60.09259728 -155.8125 54.375 C-155.24466797 53.92543945 -154.67683594 53.47587891 -154.09179688 53.01269531 C-138.60227134 40.77845509 -121.7484848 30.61134798 -103.8125 22.375 C-102.74128906 21.8807251 -102.74128906 21.8807251 -101.6484375 21.37646484 C-69.53202964 6.75202912 -35.17233085 -0.07288077 0 0 Z " fill="#F3F3F3" transform="translate(249.8125,0.625)"/>
<path d="M0 0 C0.99 0.495 0.99 0.495 2 1 C1.54786133 1.41660889 1.09572266 1.83321777 0.62988281 2.26245117 C-8.47172984 10.67325465 -17.29880741 19.18217136 -25.56738281 28.41455078 C-27.05649439 30.06252123 -28.56734025 31.68777408 -30.0859375 33.30859375 C-35.5765302 39.17303603 -40.83144973 45.12897418 -45.86328125 51.3984375 C-47.95882494 53.94986729 -50.13963155 56.38326773 -52.375 58.8125 C-62.58553224 70.06348371 -71.40046515 82.50355074 -80.35253906 94.75585938 C-81.81454677 96.74737906 -83.28939094 98.72800971 -84.7734375 100.703125 C-93.3354624 112.13833407 -101.15073324 124.06934965 -109 136 C-109.88703613 137.34215576 -109.88703613 137.34215576 -110.79199219 138.71142578 C-117.53330429 148.91632414 -124.05319424 159.20239531 -130.13183594 169.81933594 C-130.5962207 170.61500977 -131.06060547 171.41068359 -131.5390625 172.23046875 C-131.94334473 172.93582764 -132.34762695 173.64118652 -132.76416016 174.36791992 C-134 176 -134 176 -137 177 C-137.52086182 176.36949738 -137.52086182 176.36949738 -138.05224609 175.72625732 C-143.56807391 169.23115494 -149.62611244 163.31735173 -155.69723511 157.34986115 C-158.33455981 154.75498606 -160.96224956 152.15044241 -163.59062195 149.54650497 C-168.46991723 144.7128122 -173.35317879 139.88328539 -178.25244141 135.06982422 C-181.67527785 131.70620172 -185.08592713 128.330644 -188.4887085 124.9467392 C-189.78565296 123.66155919 -191.08712656 122.3809334 -192.39312744 121.10495758 C-194.20988802 119.3289808 -196.01072819 117.53823703 -197.80859375 115.74316406 C-198.35288528 115.21841995 -198.89717682 114.69367584 -199.45796204 114.1530304 C-200.92749023 112.66705322 -200.92749023 112.66705322 -203 110 C-202.89790718 107.25969557 -202.39125589 106.42054778 -200.5390625 104.4296875 C-199.90742188 103.91664063 -199.27578125 103.40359375 -198.625 102.875 C-194.03415364 99.05761145 -189.68080963 95.01646694 -185.3203125 90.94140625 C-183 89 -183 89 -181 89 C-179.2722931 90.62694532 -177.63823622 92.28594176 -176 94 C-174.80374506 95.20168812 -173.60454884 96.40045249 -172.40307617 97.59692383 C-162.60205078 107.39794922 -152.80102539 117.19897461 -143 127 C-138.92465674 125.1572783 -136.59325582 122.47899752 -133.8125 119.0625 C-133.09175293 118.1950415 -133.09175293 118.1950415 -132.35644531 117.31005859 C-130.05862443 114.53763822 -127.79115958 111.74167133 -125.52734375 108.94140625 C-121.79246 104.32245054 -118.06529209 99.89605203 -113.77935791 95.78016663 C-112.01478995 94.01479667 -110.3937167 92.18402193 -108.77246094 90.28686523 C-105.0953789 86.05751883 -101.22412028 82.06269631 -97.265625 78.09765625 C-96.18761627 77.01465492 -96.18761627 77.01465492 -95.08782959 75.90977478 C-93.57646241 74.39337926 -92.06376896 72.87830455 -90.54980469 71.36450195 C-88.26467521 69.07718923 -85.98767139 66.78199382 -83.7109375 64.48632812 C-76.79828499 57.54765523 -69.93371888 50.76772889 -62.20263672 44.73510742 C-59.99587403 42.99674981 -57.93413989 41.15966705 -55.875 39.25 C-41.27821696 26.16233179 -24.74097263 15.08462769 -8.125 4.75 C-7.34519775 4.25935059 -6.56539551 3.76870117 -5.76196289 3.26318359 C-5.03871826 2.82055176 -4.31547363 2.37791992 -3.5703125 1.921875 C-2.60762451 1.32777832 -2.60762451 1.32777832 -1.62548828 0.72167969 C-0.82087158 0.36444824 -0.82087158 0.36444824 0 0 Z " fill="#1A3249" transform="translate(361,132)"/>
<path d="M0 0 C0 21.78 0 43.56 0 66 C-8.58 70.62 -17.16 75.24 -26 80 C-35.10845703 85.11324609 -35.10845703 85.11324609 -44.19921875 90.2578125 C-45.02341309 90.72606445 -45.84760742 91.19431641 -46.69677734 91.67675781 C-48.16835292 92.52220403 -49.63305581 93.37980388 -51.08837891 94.25292969 C-55.69531935 97 -55.69531935 97 -59 97 C-59.442412 88.58593519 -59.77878873 80.176795 -59.98443127 71.75393963 C-60.08320441 67.8411139 -60.21672306 63.93629021 -60.43334961 60.02807617 C-61.79801833 34.77437368 -61.79801833 34.77437368 -57.12213135 28.46685791 C-51.61099069 23.67389025 -44.41291139 20 -37 20 C-37 26.27 -37 32.54 -37 39 C-35.02 38.505 -35.02 38.505 -33 38 C-32.67 37.01 -32.34 36.02 -32 35 C-28.72953994 33.69181598 -25.41197812 32.84374296 -22 32 C-22.04189453 31.39003174 -22.08378906 30.78006348 -22.12695312 30.15161133 C-22.29382668 27.37258572 -22.39743371 24.59461059 -22.5 21.8125 C-22.60054688 20.37293945 -22.60054688 20.37293945 -22.703125 18.90429688 C-22.78153243 16.07182847 -22.737236 13.73915222 -22 11 C-19.66332802 8.57202689 -17.05401209 7.35193083 -14 6 C-12.98292969 5.40574219 -11.96585937 4.81148437 -10.91796875 4.19921875 C-10.01691406 3.70035156 -9.11585938 3.20148438 -8.1875 2.6875 C-7.27355469 2.17574219 -6.35960937 1.66398438 -5.41796875 1.13671875 C-3 0 -3 0 0 0 Z " fill="#DB8D33" transform="translate(335,223)"/>
<path d="M0 0 C1.65 0 3.3 0 5 0 C6.16179012 16.67652903 -1.46248984 35.89283707 -10 50 C-10.35852051 50.60585938 -10.71704102 51.21171875 -11.08642578 51.8359375 C-28.08702443 80.32302105 -52.58472096 99.71814314 -83 112 C-83.93070312 112.38929688 -84.86140625 112.77859375 -85.8203125 113.1796875 C-116.96770754 125.46719197 -154.39895084 124.13817473 -185.02148438 111.14208984 C-197.47692721 105.70375688 -197.47692721 105.70375688 -202 102 C-201.34 100.68 -200.68 99.36 -200 98 C-196.08184358 99.20776746 -192.73309405 100.64948137 -189.1875 102.6875 C-182.79481383 105.96042634 -176.15464619 107.88528448 -169.25 109.8125 C-167.63387817 110.26532349 -167.63387817 110.26532349 -165.98510742 110.72729492 C-157.5302727 113.0163968 -149.45774917 114.14799907 -140.72265625 114.23828125 C-139.95304062 114.246353 -139.18342499 114.25442474 -138.39048767 114.26274109 C-136.76775292 114.27648535 -135.14499044 114.28725005 -133.5222168 114.29516602 C-131.8984297 114.30660908 -130.27467788 114.32693716 -128.65112305 114.35668945 C-98.1403437 114.91335335 -68.22564806 102.6064456 -45 83 C-44.48840332 82.57348145 -43.97680664 82.14696289 -43.44970703 81.70751953 C-30.50966575 70.80308258 -21.23811929 57.68008678 -13 43 C-12.58105469 42.27554688 -12.16210938 41.55109375 -11.73046875 40.8046875 C-4.91986184 28.26882937 -2.51927875 13.86307019 0 0 Z " fill="#DA9648" transform="translate(382,265)"/>
<path d="M0 0 C2.475 0.495 2.475 0.495 5 1 C5 22.78 5 44.56 5 67 C0.3515234 66.07030468 -2.40389596 64.91282185 -6.5078125 62.69140625 C-7.115112 62.36462387 -7.7224115 62.03784149 -8.34811401 61.70115662 C-10.27710014 60.66101522 -12.20095102 59.61174033 -14.125 58.5625 C-15.42547561 57.86076142 -16.72625405 57.15958372 -18.02734375 56.45898438 C-27.44159361 51.37227092 -27.44159361 51.37227092 -31 49 C-29.62473303 45.25937487 -27.91083354 42.06347257 -25.76171875 38.7109375 C-25.11203125 37.69507568 -24.46234375 36.67921387 -23.79296875 35.63256836 C-23.09816406 34.5575708 -22.40335938 33.48257324 -21.6875 32.375 C-20.97851562 31.2722876 -20.26953125 30.1695752 -19.5390625 29.03344727 C-13.21542918 19.22567229 -6.66654571 9.5774518 0 0 Z " fill="#DB8E36" transform="translate(268,253)"/>
<path d="M0 0 C2.25784598 -0.00217147 4.51519034 -0.02032352 6.77294922 -0.03930664 C17.72906553 -0.08278687 28.22711662 0.50600853 38.65966797 4.18530273 C38.32966797 5.50530273 37.99966797 6.82530273 37.65966797 8.18530273 C33.52636532 8.36900507 29.9506052 8.08762564 25.90576172 7.20874023 C18.4829699 5.82824258 11.06018753 5.70049416 3.53466797 5.68530273 C2.79210754 5.68295624 2.04954712 5.68060974 1.28448486 5.67819214 C-34.42853023 5.72458759 -65.80686119 20.75886453 -91.09033203 45.49780273 C-97.36559607 51.81652035 -102.4641319 58.75532626 -107.34033203 66.18530273 C-107.90236328 67.02448242 -108.46439453 67.86366211 -109.04345703 68.72827148 C-119.83864316 85.68807707 -124.59672013 104.50196583 -127.34033203 124.18530273 C-128.99033203 124.18530273 -130.64033203 124.18530273 -132.34033203 124.18530273 C-132.49744162 118.05198614 -132.10593696 112.59053781 -130.71533203 106.62280273 C-130.53566895 105.84614258 -130.35600586 105.06948242 -130.17089844 104.26928711 C-124.43072861 80.53617114 -112.07778799 59.85110046 -95.34033203 42.18530273 C-94.51919922 41.2997168 -93.69806641 40.41413086 -92.85205078 39.50170898 C-75.72865135 21.61726958 -53.18694692 8.75475609 -29.09033203 2.99780273 C-28.43548828 2.83344727 -27.78064453 2.6690918 -27.10595703 2.49975586 C-18.05005205 0.28069978 -9.26727332 -0.00099498 0 0 Z " fill="#58A1BB" transform="translate(246.34033203125,115.814697265625)"/>
<path d="M0 0 C0.38671875 2.70703125 0.38671875 2.70703125 0 6 C-2.06931177 7.89557645 -3.84078108 9.22669965 -6.1875 10.6875 C-7.47844187 11.54994428 -8.76612914 12.41727697 -10.05078125 13.2890625 C-11.03812256 13.95470215 -11.03812256 13.95470215 -12.04541016 14.63378906 C-23.77992274 22.83592901 -39.22504824 35.1902031 -42 50 C-42.38982457 54.21010532 -42.27751007 56.46553616 -40.3125 60.25 C-34.4080429 67.27151655 -25.50280773 68.38566296 -16.78271484 69.20947266 C-3.16526698 70.11922792 9.47221481 67.68160164 22.66015625 64.45898438 C25 64 25 64 29 64 C29.33 65.32 29.66 66.64 30 68 C13.65091398 77.02134183 -12.58738603 77.91316667 -30.375 72.875 C-38.07214229 70.42321951 -42.90365953 67.65168985 -46.9375 60.625 C-49.0093204 53.55643627 -48.44202072 48.76856306 -45.25390625 42.28125 C-36.45165916 26.26719298 -22.91449135 14.85091708 -8.3125 4.3125 C-7.71219971 3.87808594 -7.11189941 3.44367188 -6.4934082 2.99609375 C-2.2507779 0 -2.2507779 0 0 0 Z " fill="#223750" transform="translate(153,257)"/>
<path d="M0 0 C3.3169509 2.90561398 6.24366402 6.06081726 6.71875 10.546875 C7.06491219 23.37309492 1.92437599 30.99788855 -6.51953125 40.296875 C-7.27234375 41.1321875 -8.02515625 41.9675 -8.80078125 42.828125 C-18.32562382 52.86095917 -30.39726094 61.60793865 -42.51953125 68.296875 C-43.17953125 68.296875 -43.83953125 68.296875 -44.51953125 68.296875 C-44.96484375 65.5859375 -44.96484375 65.5859375 -44.51953125 62.296875 C-42.12806641 60.4271843 -40.03637776 59.08941453 -37.39453125 57.671875 C-28.88697496 52.7507536 -21.74317625 46.92311311 -14.51953125 40.296875 C-13.80023438 39.66007812 -13.0809375 39.02328125 -12.33984375 38.3671875 C-6.97966928 33.38818099 -0.09822837 25.35634122 0.75390625 17.90625 C1.08961286 11.45407848 1.08961286 11.45407848 -1.58203125 5.796875 C-10.41866401 -1.72366352 -22.20851755 -2.05259275 -33.33203125 -1.953125 C-34.38430908 -1.94925781 -35.43658691 -1.94539062 -36.52075195 -1.94140625 C-43.1724782 -1.86746966 -49.49854137 -1.44174539 -56.03125 -0.140625 C-58.57779175 0.30711861 -60.93953598 0.37125324 -63.51953125 0.296875 C-63.51953125 -1.353125 -63.51953125 -3.003125 -63.51953125 -4.703125 C-44.26972068 -9.5227497 -17.13409093 -12.25484649 0 0 Z " fill="#263A53" transform="translate(392.51953125,183.703125)"/>
<path d="M0 0 C5.99051716 1.70150823 11.31858916 4.56899788 16.8125 7.4375 C18.26172852 8.17323242 18.26172852 8.17323242 19.74023438 8.92382812 C20.65740234 9.40142578 21.57457031 9.87902344 22.51953125 10.37109375 C23.35589111 10.80349365 24.19225098 11.23589355 25.05395508 11.68139648 C27 13 27 13 28 16 C25.25384196 17.48638267 22.50245309 18.96281172 19.75 20.4375 C18.97269531 20.85837891 18.19539063 21.27925781 17.39453125 21.71289062 C16.26337891 22.31713867 16.26337891 22.31713867 15.109375 22.93359375 C14.41811523 23.30540771 13.72685547 23.67722168 13.01464844 24.06030273 C8.09417654 26.35537015 8.09417654 26.35537015 5.0012207 25.35083008 C2.76348715 24.18497642 0.5300219 23.01650897 -1.6875 21.8125 C-2.47189453 21.41224609 -3.25628906 21.01199219 -4.06445312 20.59960938 C-4.81017578 20.20193359 -5.55589844 19.80425781 -6.32421875 19.39453125 C-7.00572998 19.03206299 -7.68724121 18.66959473 -8.3894043 18.29614258 C-10 17 -10 17 -10.87402344 15.05249023 C-11.06827129 11.88768082 -9.16262867 10.30677074 -7.17773438 8.02734375 C-6.64470703 7.44082031 -6.11167969 6.85429687 -5.5625 6.25 C-5.03333984 5.64800781 -4.50417969 5.04601562 -3.95898438 4.42578125 C-2.65056134 2.94054429 -1.32670579 1.46892866 0 0 Z " fill="#DC8F37" transform="translate(304,205)"/>
<path d="M0 0 C2.33146868 1.10731485 4.6241819 2.29928576 6.875 3.5625 C8.02742188 4.20316406 9.17984375 4.84382812 10.3671875 5.50390625 C11.67042969 6.24447266 11.67042969 6.24447266 13 7 C11.38071731 10.90478455 8.80673954 13.56172556 5.9375 16.625 C2.58466353 20.04209753 2.58466353 20.04209753 0 24 C-6.17411522 22.33132021 -11.46884579 19.11603591 -17 16 C-18.72877205 15.04095499 -20.4579015 14.08255374 -22.1875 13.125 C-23.45858156 12.4171122 -24.72951673 11.70896103 -26 11 C-22.71934979 7.4750933 -18.88971415 5.51355461 -14.6875 3.25 C-13.56698242 2.61384766 -13.56698242 2.61384766 -12.42382812 1.96484375 C-7.90427317 -0.47150984 -5.0966369 -1.74485675 0 0 Z " fill="#DC913A" transform="translate(237,208)"/>
<path d="M0 0 C4.95372224 1.83620661 9.60403157 4.24661026 14.3125 6.625 C15.14845703 7.04523438 15.98441406 7.46546875 16.84570312 7.8984375 C18.898057 8.93047831 20.94944979 9.96438144 23 11 C22.17073015 15.05945293 20.47739556 16.97221442 17.625 20 C14.90645773 22.90450118 12.32078013 25.76588059 10 29 C5.47664318 27.57837357 2.85656249 25.80874999 0 22 C-0.61603784 18.21127365 -0.47159246 14.5130617 -0.3125 10.6875 C-0.28994141 9.66076172 -0.26738281 8.63402344 -0.24414062 7.57617188 C-0.18537575 5.0492821 -0.10327849 2.52539745 0 0 Z " fill="#DB9038" transform="translate(210,222)"/>
<path d="M0 0 C8.37060784 3.06922287 16.17411109 7.7519549 24 12 C24.26554687 11.41734375 24.53109375 10.8346875 24.8046875 10.234375 C26.03302996 7.93825772 27.40314939 6.19643982 29.125 4.25 C29.66382813 3.63640625 30.20265625 3.0228125 30.7578125 2.390625 C31.16773438 1.93171875 31.57765625 1.4728125 32 1 C34.475 2.485 34.475 2.485 37 4 C35.68268423 6.94645992 34.3003931 8.87836004 31.9375 11.0625 C27.18148659 15.68065795 23.14491376 20.83776081 19 26 C17.3168919 28.06612926 15.62704885 30.12662173 13.9375 32.1875 C13.18339844 33.10917969 12.42929688 34.03085938 11.65234375 34.98046875 C11.10707031 35.64691406 10.56179687 36.31335938 10 37 C5.1015625 34.2734375 5.1015625 34.2734375 4.1875 31.8125 C4.0946875 30.9153125 4.0946875 30.9153125 4 30 C4.56589844 29.94328125 5.13179687 29.8865625 5.71484375 29.828125 C9.03670555 28.624305 10.3903204 26.49922224 12.5625 23.75 C13.32691406 22.79609375 14.09132812 21.8421875 14.87890625 20.859375 C16.76888893 18.31155304 18.42804861 15.75217049 20 13 C19.19304687 12.76539063 18.38609375 12.53078125 17.5546875 12.2890625 C13.1727263 10.69999965 9.21537571 8.59350886 5.125 6.375 C4.34125 5.95476562 3.5575 5.53453125 2.75 5.1015625 C0.83107943 4.0718978 -1.08477603 3.03652433 -3 2 C-2.01 1.34 -1.02 0.68 0 0 Z " fill="#EDECE7" transform="translate(213,220)"/>
<path d="M0 0 C3.55247432 0.87379409 4.94828114 2.4927342 6.9375 5.4765625 C7.63574523 8.31532999 7.64128755 10.63852492 6.9375 13.4765625 C4.875 16.4765625 4.875 16.4765625 1.9375 18.4765625 C-2.36524909 19.16807575 -4.27195312 18.99213655 -7.9375 16.6015625 C-10.6498239 13.8892386 -11.00164093 13.01415097 -11.4375 9.1640625 C-11.0625 5.4765625 -11.0625 5.4765625 -9.0625 2.5390625 C-5.72726514 0.24608853 -3.96242945 -0.28517485 0 0 Z " fill="#53A1BC" transform="translate(118.0625,245.5234375)"/>
<path d="M0 0 C3.0625 2.0625 3.0625 2.0625 5 5 C5.69151325 9.30274909 5.51557405 11.20945312 3.125 14.875 C0.4126761 17.5873239 -0.46241153 17.93914093 -4.3125 18.375 C-8 18 -8 18 -10.9375 16.0625 C-13.69990204 11.96075152 -13.93339724 8.81058577 -13 4 C-10.16396697 -1.05553715 -5.24582406 -1.06409954 0 0 Z " fill="#54A1BC" transform="translate(390,242)"/>
<path d="M0 0 C2.75329021 1.79562405 4.52627461 3.05254922 6 6 C6.55358359 10.05961302 6.12772011 11.77751981 4.0625 15.375 C1.70902093 17.92348162 -0.12118612 18.48874425 -3.5625 18.6875 C-6.88550805 18.4382744 -7.85008455 18.11700718 -10.5625 16 C-12.40251016 12.15997879 -12.96007379 9.17716314 -12 5 C-8.62505893 0.09099481 -5.84787119 -0.93983644 0 0 Z " fill="#DD923C" transform="translate(172,347)"/>
<path d="M0 0 C2.75329021 1.79562405 4.52627461 3.05254922 6 6 C6.43023798 9.87214182 6.31669086 11.52496371 4.125 14.8125 C1.20062465 17.82288639 0.42150539 17.95920916 -3.875 18.375 C-7.15225968 18.31541346 -7.81687595 18.14649924 -10.5 16 C-12.41831364 12.16337272 -12.96644949 9.20490304 -12 5 C-8.62505893 0.09099481 -5.84787119 -0.93983644 0 0 Z " fill="#DC8D36" transform="translate(302,118)"/>
<path d="M0 0 C3.37629194 0.78131663 6.1596323 1.97665342 9.25 3.5625 C10.14203125 4.01753906 11.0340625 4.47257813 11.953125 4.94140625 C12.96632813 5.46541016 12.96632813 5.46541016 14 6 C14 6.66 14 7.32 14 8 C12.87980469 8.55429688 11.75960938 9.10859375 10.60546875 9.6796875 C9.13275962 10.41135191 7.66010628 11.14312861 6.1875 11.875 C5.44951172 12.23980469 4.71152344 12.60460937 3.95117188 12.98046875 C3.23896484 13.33496094 2.52675781 13.68945312 1.79296875 14.0546875 C1.1383667 14.37937012 0.48376465 14.70405273 -0.19067383 15.03857422 C-2.24652798 16.09255672 -2.24652798 16.09255672 -5 18 C-8.1875 18.125 -8.1875 18.125 -11 18 C-10.40149598 15.01034358 -9.51087951 13.00221502 -7.71484375 10.546875 C-7.26689453 9.928125 -6.81894531 9.309375 -6.35742188 8.671875 C-5.88884766 8.03765625 -5.42027344 7.4034375 -4.9375 6.75 C-4.46505859 6.1003125 -3.99261719 5.450625 -3.50585938 4.78125 C-2.34276471 3.18346338 -1.17211399 1.59118197 0 0 Z " fill="#DA913F" transform="translate(282,233)"/>
<path d="M0 0 C0 4 0 4 -1.57421875 5.74609375 C-2.27160156 6.30425781 -2.96898437 6.86242187 -3.6875 7.4375 C-6.23234212 9.51190476 -8.53506551 11.52332057 -10.6875 14 C-13 16 -13 16 -15.375 16.0625 C-18.80894147 14.67257131 -21.83297696 12.92505322 -25 11 C-25 10.34 -25 9.68 -25 9 C-21.97276995 7.28558559 -18.92633576 5.60857611 -15.875 3.9375 C-15.0190625 3.45216797 -14.163125 2.96683594 -13.28125 2.46679688 C-5.37142479 -1.82276218 -5.37142479 -1.82276218 0 0 Z " fill="#DB923E" transform="translate(275,188)"/>
<path d="M0 0 C0.495 1.98 0.495 1.98 1 4 C-13.11612408 12.20361138 -32.40754728 10.47465609 -48 10 C-48 9.67 -48 9.34 -48 9 C-44.535 8.505 -44.535 8.505 -41 8 C-41 7.34 -41 6.68 -41 6 C-39.92105469 5.90203125 -38.84210938 5.8040625 -37.73046875 5.703125 C-28.40038534 4.79302675 -19.33960278 3.40567837 -10.19604492 1.32128906 C-6.67844483 0.52496492 -3.627163 0 0 0 Z " fill="#23374D" transform="translate(182,321)"/>
<path d="M0 0 C0.66 0.33 1.32 0.66 2 1 C0.86351798 4.40944605 0.46011714 4.60693771 -2.52734375 6.26171875 C-3.23697266 6.65810547 -3.94660156 7.05449219 -4.67773438 7.46289062 C-5.42345703 7.86701172 -6.16917969 8.27113281 -6.9375 8.6875 C-7.67935547 9.10322266 -8.42121094 9.51894531 -9.18554688 9.94726562 C-14.71455511 13 -14.71455511 13 -17 13 C-17 34.78 -17 56.56 -17 79 C-16.34 79.33 -15.68 79.66 -15 80 C-15.99 80 -16.98 80 -18 80 C-18 57.56 -18 35.12 -18 12 C-18.99 11.67 -19.98 11.34 -21 11 C-21 10.67 -21 10.34 -21 10 C-19.99582031 9.75636719 -18.99164063 9.51273438 -17.95703125 9.26171875 C-13.78792424 8.07219514 -10.35972347 6.07263325 -6.6875 3.8125 C-4.48161226 2.45591347 -2.2969183 1.20655242 0 0 Z " fill="#F0DEC5" transform="translate(293,241)"/>
<path d="M0 0 C0 21.78 0 43.56 0 66 C-0.66 66 -1.32 66 -2 66 C-2 44.88 -2 23.76 -2 2 C-2.99 1.67 -3.98 1.34 -5 1 C-3 0 -3 0 0 0 Z " fill="#DDA86A" transform="translate(335,223)"/>
<path d="M0 0 C4.80548597 -0.04936883 9.61082494 -0.08570443 14.41650391 -0.10986328 C16.05194672 -0.11993254 17.68737149 -0.13358881 19.32275391 -0.15087891 C21.6709437 -0.17508705 24.01889588 -0.18647357 26.3671875 -0.1953125 C27.10057343 -0.20563507 27.83395935 -0.21595764 28.58956909 -0.22659302 C30.39462697 -0.22699368 32.1990783 -0.12212755 34 0 C34.66 0.66 35.32 1.32 36 2 C32.56632144 4.09352976 29.90636407 4.23437612 25.921875 4.1953125 C24.18164062 4.18564453 24.18164062 4.18564453 22.40625 4.17578125 C21.1996875 4.15902344 19.993125 4.14226562 18.75 4.125 C16.91695312 4.11146484 16.91695312 4.11146484 15.046875 4.09765625 C12.03105218 4.07409513 9.01562508 4.04119706 6 4 C6 3.67 6 3.34 6 3 C3.03 2.505 3.03 2.505 0 2 C0 1.34 0 0.68 0 0 Z " fill="#559EB8" transform="translate(232,116)"/>
<path d="M0 0 C-3.5340223 4.11676002 -7.74790275 6.20457695 -12.5 8.625 C-13.25925781 9.01945312 -14.01851562 9.41390625 -14.80078125 9.8203125 C-16.86277423 10.88922655 -18.92867204 11.94930386 -21 13 C-21.65935547 13.3717334 -22.31871094 13.7434668 -22.99804688 14.12646484 C-25 15 -25 15 -29 15 C-29 14.01 -29 13.02 -29 12 C-25.52103024 10.11473334 -22.03393446 8.2455796 -18.53857422 6.39086914 C-16.76730205 5.44672257 -15.00274322 4.49001648 -13.23828125 3.53320312 C-12.12324219 2.94345703 -11.00820312 2.35371094 -9.859375 1.74609375 C-8.83295898 1.19622803 -7.80654297 0.6463623 -6.74902344 0.07983398 C-3.86938667 -1.05130575 -2.81016421 -1.15522441 0 0 Z " fill="#2E4055" transform="translate(193,287)"/>
<path d="M0 0 C4.35970831 1.34849837 8.31341438 3.04907846 12.375 5.125 C13.43460938 5.66382813 14.49421875 6.20265625 15.5859375 6.7578125 C16.38257813 7.16773438 17.17921875 7.57765625 18 8 C17.67 8.99 17.34 9.98 17 11 C13.47678432 12.21421557 12.15932272 12.06854799 8.66796875 10.56640625 C7.49959859 9.91291108 6.33949378 9.24444949 5.1875 8.5625 C4.59001953 8.22412109 3.99253906 7.88574219 3.37695312 7.53710938 C1.91061178 6.70422749 0.45425244 5.85381439 -1 5 C-1 1 -1 1 0 0 Z " fill="#D89343" transform="translate(182,363)"/>
<path d="M0 0 C2.31 0.66 4.62 1.32 7 2 C6.62488281 2.4846875 6.24976563 2.969375 5.86328125 3.46875 C2.28508528 8.1555558 -0.96265326 12.94671516 -4 18 C-6 15 -6 15 -6 13 C-6.66 12.67 -7.32 12.34 -8 12 C-5.36 8.04 -2.72 4.08 0 0 Z " fill="#EAE7E2" transform="translate(263,250)"/>
<path d="M0 0 C1.8046875 0.43359375 1.8046875 0.43359375 3.875 1.4375 C4.65488281 1.81261719 5.43476563 2.18773437 6.23828125 2.57421875 C11.53390255 5.30816751 16.77865281 8.12704853 22 11 C20.31152344 12.13818359 20.31152344 12.13818359 18 13 C15.61816406 12.21728516 15.61816406 12.21728516 13.015625 10.7890625 C12.08105469 10.28632813 11.14648438 9.78359375 10.18359375 9.265625 C9.21550781 8.72421875 8.24742187 8.1828125 7.25 7.625 C6.26644531 7.09132812 5.28289062 6.55765625 4.26953125 6.0078125 C1.83820221 4.68592486 -0.58404475 3.34972042 -3 2 C-2.01 1.34 -1.02 0.68 0 0 Z " fill="#F4E5D2" transform="translate(213,220)"/>
<path d="M0 0 C2.43816585 -0.0809723 4.87364384 -0.14046972 7.3125 -0.1875 C8.34793945 -0.22520508 8.34793945 -0.22520508 9.40429688 -0.26367188 C14.55674183 -0.33834499 14.55674183 -0.33834499 16.98046875 1.51171875 C17.31691406 2.00285156 17.65335938 2.49398438 18 3 C14.99984088 4.00005304 13.02576244 4.11575585 9.89453125 4.09765625 C8.91162109 4.09443359 7.92871094 4.09121094 6.91601562 4.08789062 C5.89185547 4.07951172 4.86769531 4.07113281 3.8125 4.0625 C2.77673828 4.05798828 1.74097656 4.05347656 0.67382812 4.04882812 C-1.88417266 4.0370401 -4.44205733 4.02058515 -7 4 C-7 3.67 -7 3.34 -7 3 C-3.535 2.505 -3.535 2.505 0 2 C0 1.34 0 0.68 0 0 Z " fill="#182B42" transform="translate(141,327)"/>
<path d="M0 0 C1.0209375 0.37125 1.0209375 0.37125 2.0625 0.75 C-1.64186911 3.21957941 -5.47455866 5.35819594 -9.375 7.5 C-10.5206543 8.15548828 -10.5206543 8.15548828 -11.68945312 8.82421875 C-12.80030273 9.42943359 -12.80030273 9.42943359 -13.93359375 10.046875 C-14.60575928 10.42166992 -15.2779248 10.79646484 -15.97045898 11.18261719 C-17.9375 11.75 -17.9375 11.75 -20.18774414 10.85644531 C-20.76516357 10.49131836 -21.34258301 10.12619141 -21.9375 9.75 C-21.15246094 9.36328125 -20.36742187 8.9765625 -19.55859375 8.578125 C-18.50800781 8.05734375 -17.45742188 7.5365625 -16.375 7 C-15.27929688 6.45730469 -14.18359375 5.91460937 -13.0546875 5.35546875 C-10.61186257 4.09732207 -8.31663427 2.7797017 -6 1.3125 C-2.9375 -0.25 -2.9375 -0.25 0 0 Z " fill="#F4E3CD" transform="translate(332.9375,221.25)"/>
<path d="M0 0 C0.66 0 1.32 0 2 0 C2.05429959 1.74965358 2.09292823 3.49979787 2.125 5.25 C2.14820313 6.22453125 2.17140625 7.1990625 2.1953125 8.203125 C1.99862781 11.0196498 1.44568916 12.60949036 0 15 C-0.99 15 -1.98 15 -3 15 C-3.66 16.32 -4.32 17.64 -5 19 C-3.18421053 4.77631579 -3.18421053 4.77631579 0 0 Z " fill="#192F49" transform="translate(397,192)"/>
<path d="M0 0 C1.09054688 0.02320313 2.18109375 0.04640625 3.3046875 0.0703125 C4.40039062 0.08835937 5.49609375 0.10640625 6.625 0.125 C7.46804687 0.14820313 8.31109375 0.17140625 9.1796875 0.1953125 C9.1796875 1.1853125 9.1796875 2.1753125 9.1796875 3.1953125 C13.1396875 3.5253125 17.0996875 3.8553125 21.1796875 4.1953125 C21.1796875 4.5253125 21.1796875 4.8553125 21.1796875 5.1953125 C17.78387234 5.2244669 14.38808964 5.24216318 10.9921875 5.2578125 C10.03248047 5.26619141 9.07277344 5.27457031 8.08398438 5.28320312 C7.15263672 5.28642578 6.22128906 5.28964844 5.26171875 5.29296875 C4.40811768 5.29820557 3.5545166 5.30344238 2.67504883 5.30883789 C0.08722003 5.19110573 -2.29693203 4.76638294 -4.8203125 4.1953125 C-4.8203125 0.68661631 -3.24277412 0.22456884 0 0 Z " fill="#405265" transform="translate(131.8203125,326.8046875)"/>
<path d="M0 0 C1.11084961 0.07831055 1.11084961 0.07831055 2.24414062 0.15820312 C4.05902709 0.28700152 5.87333325 0.42393262 7.6875 0.5625 C7.6875 0.8925 7.6875 1.2225 7.6875 1.5625 C13.9575 1.8925 20.2275 2.2225 26.6875 2.5625 C26.6875 2.8925 26.6875 3.2225 26.6875 3.5625 C22.43755737 3.62055933 18.18771676 3.65611654 13.9375 3.6875 C12.7309375 3.70425781 11.524375 3.72101563 10.28125 3.73828125 C9.12109375 3.74472656 7.9609375 3.75117187 6.765625 3.7578125 C5.69731445 3.76828613 4.62900391 3.77875977 3.52832031 3.78955078 C0.67084383 3.56116877 -0.84620672 2.92815582 -3.3125 1.5625 C-5.91372413 1.53396353 -5.91372413 1.53396353 -8.5625 1.9375 C-9.45453125 2.04835938 -10.3465625 2.15921875 -11.265625 2.2734375 C-11.94109375 2.36882812 -12.6165625 2.46421875 -13.3125 2.5625 C-13.3125 1.9025 -13.3125 1.2425 -13.3125 0.5625 C-8.82082172 -0.63350901 -4.57980207 -0.3560704 0 0 Z " fill="#6EAEC3" transform="translate(233.3125,117.4375)"/>
<path d="M0 0 C1.65 0 3.3 0 5 0 C4.719172 1.98073365 4.42503386 3.95958448 4.125 5.9375 C3.96257812 7.03964844 3.80015625 8.14179688 3.6328125 9.27734375 C3.42398438 10.17582031 3.21515625 11.07429688 3 12 C2.01 12.495 2.01 12.495 1 13 C0.34 13.99 -0.32 14.98 -1 16 C-2.59712091 11.20863728 -2.58050244 6.74150731 -1 2 C-0.67 1.34 -0.34 0.68 0 0 Z " fill="#314459" transform="translate(107,301)"/>
<path d="M0 0 C-2.35738437 2.63563302 -4.78537321 4.10906659 -7.9375 5.6875 C-9.21947266 6.34298828 -9.21947266 6.34298828 -10.52734375 7.01171875 C-13 8 -13 8 -17 8 C-15.70538169 4.11614507 -14.28058761 3.69465521 -10.75 1.75 C-9.79609375 1.20859375 -8.8421875 0.6671875 -7.859375 0.109375 C-4.67766826 -1.12505767 -3.20709056 -1.00660507 0 0 Z " fill="#2D4255" transform="translate(245,313)"/>
<path d="M0 0 C4.95 0.99 9.9 1.98 15 3 C15 3.99 15 4.98 15 6 C8.73960391 6.93213141 3.97802937 7.20927172 -2 5 C-1.34 4.67 -0.68 4.34 0 4 C0 2.68 0 1.36 0 0 Z " fill="#273A51" transform="translate(119,323)"/>
<path d="M0 0 C-2.48740182 2.78992366 -5.24218857 4.44594313 -8.5 6.25 C-9.93859375 7.06210937 -9.93859375 7.06210937 -11.40625 7.890625 C-14 9 -14 9 -17 8 C-16 5 -16 5 -13.41796875 3.359375 C-12.35191406 2.82828125 -11.28585938 2.2971875 -10.1875 1.75 C-9.12917969 1.20859375 -8.07085937 0.6671875 -6.98046875 0.109375 C-3.97572265 -1.00903639 -2.89774959 -1.20681097 0 0 Z " fill="#273A50" transform="translate(217,310)"/>
<path d="M0 0 C0 0.99 0 1.98 0 3 C-1.32 2.67 -2.64 2.34 -4 2 C-4.33 3.32 -4.66 4.64 -5 6 C-7.64 6.33 -10.28 6.66 -13 7 C-13.66 5.35 -14.32 3.7 -15 2 C-9.92523206 0.73694665 -5.27203646 -0.27036084 0 0 Z " fill="#33465B" transform="translate(169,324)"/>
<path d="M0 0 C3.75504711 1.45356662 3.75504711 1.45356662 4.8125 3.8125 C5.03322704 6.38764878 4.62444329 8.50222685 4 11 C3.67 11 3.34 11 3 11 C2.67 12.65 2.34 14.3 2 16 C1.67 16 1.34 16 1 16 C0.95101563 15.40832031 0.90203125 14.81664062 0.8515625 14.20703125 C0.43543133 9.80895528 -0.04965595 6.03071103 -2 2 C-1.34 1.34 -0.68 0.68 0 0 Z " fill="#2E435A" transform="translate(393,186)"/>
<path d="M0 0 C0.99 0.99 1.98 1.98 3 3 C1.68 5.97 0.36 8.94 -1 12 C-1.99 11.34 -2.98 10.68 -4 10 C-3.51171875 3.9453125 -3.51171875 3.9453125 -3 2 C-2.01 1.34 -1.02 0.68 0 0 Z " fill="#D88F3B" transform="translate(375,299)"/>
<path d="M0 0 C0.33 0 0.66 0 1 0 C1.33 3.96 1.66 7.92 2 12 C2.66 11.67 3.32 11.34 4 11 C6.3329866 10.95977609 8.66706666 10.95679753 11 11 C10.67 11.66 10.34 12.32 10 13 C9.21625 13.144375 8.4325 13.28875 7.625 13.4375 C4.70066197 14.06414386 3.95747572 14.85609802 2 17 C1.34 17 0.68 17 0 17 C0 11.39 0 5.78 0 0 Z " fill="#F5EADC" transform="translate(298,245)"/>
<path d="M0 0 C0 0.66 0 1.32 0 2 C-1.43294498 2.84114171 -2.87154405 3.67265687 -4.3125 4.5 C-5.51326172 5.19609375 -5.51326172 5.19609375 -6.73828125 5.90625 C-9 7 -9 7 -12 7 C-11.7421875 5.14453125 -11.7421875 5.14453125 -11 3 C-9.2578125 1.69921875 -9.2578125 1.69921875 -7.125 0.6875 C-6.42632812 0.34074219 -5.72765625 -0.00601562 -5.0078125 -0.36328125 C-3 -1 -3 -1 0 0 Z " fill="#35475B" transform="translate(205,298)"/>
<path d="M0 0 C0.53625 0.226875 1.0725 0.45375 1.625 0.6875 C-2.93679775 5.57514045 -2.93679775 5.57514045 -6.375 6.6875 C-9.625 6.3125 -9.625 6.3125 -12.375 5.6875 C-4.5862069 -0.60344828 -4.5862069 -0.60344828 0 0 Z " fill="#36495D" transform="translate(191.375,286.3125)"/>
<path d="M0 0 C1.65 0.99 3.3 1.98 5 3 C3.60667426 6.36720387 2.0210714 7.9859524 -1 10 C-1 8.68 -1 7.36 -1 6 C-1.99 5.67 -2.98 5.34 -4 5 C-2.68 3.35 -1.36 1.7 0 0 Z " fill="#E8E9E6" transform="translate(245,221)"/>
<path d="M0 0 C0 0.66 0 1.32 0 2 C-1.24460783 2.67667998 -2.49596896 3.34094719 -3.75 4 C-4.79414063 4.556875 -4.79414063 4.556875 -5.859375 5.125 C-8 6 -8 6 -12 6 C-10.9200311 2.86809018 -9.99049526 1.99400788 -7.125 0.1875 C-4.02316031 -0.99119908 -2.9798555 -1.26070809 0 0 Z " fill="#334558" transform="translate(182,275)"/>
<path d="M0 0 C0.33 1.32 0.66 2.64 1 4 C-1.75924185 5.80411967 -2.88972103 6.0127245 -6.25 5.625 C-7.1575 5.41875 -8.065 5.2125 -9 5 C-8.67 3.68 -8.34 2.36 -8 1 C-5.10765685 0.17361624 -3.11257569 0 0 0 Z " fill="#2C4156" transform="translate(182,321)"/>
<path d="M0 0 C0.66 0.33 1.32 0.66 2 1 C0.61811547 4.21043882 -0.92421903 6.04936365 -3.625 8.25 C-4.25664062 8.77078125 -4.88828125 9.2915625 -5.5390625 9.828125 C-6.02117187 10.21484375 -6.50328125 10.6015625 -7 11 C-7.66 9.68 -8.32 8.36 -9 7 C-4.25 4 -4.25 4 -2 4 C-1.34 2.68 -0.68 1.36 0 0 Z " fill="#1D3451" transform="translate(386,219)"/>
<path d="M0 0 C-2.75 3.875 -2.75 3.875 -5 5 C-7.625 4.0625 -7.625 4.0625 -10 3 C-10 3.66 -10 4.32 -10 5 C-10.66 5 -11.32 5 -12 5 C-12 4.01 -12 3.02 -12 2 C-10.75579353 1.4654744 -9.50429064 0.94791389 -8.25 0.4375 C-7.55390625 0.14746094 -6.8578125 -0.14257812 -6.140625 -0.44140625 C-3.69987216 -1.07831803 -2.3596345 -0.80248831 0 0 Z " fill="#63A7BF" transform="translate(213,122)"/>
<path d="M0 0 C0.66 0.33 1.32 0.66 2 1 C0.71937515 2.7074998 -0.61767557 4.37373596 -2 6 C-2.66 6 -3.32 6 -4 6 C-4.2475 6.5775 -4.495 7.155 -4.75 7.75 C-6.16683317 10.3002997 -7.87627537 12.01785701 -10 14 C-10.66 13.67 -11.32 13.34 -12 13 C-10.18777319 11.02058257 -8.37523172 9.04145495 -6.5625 7.0625 C-6.04623047 6.49853516 -5.52996094 5.93457031 -4.99804688 5.35351562 C-1.11328125 1.11328125 -1.11328125 1.11328125 0 0 Z " fill="#D7DDE0" transform="translate(130,279)"/>
<path d="M0 0 C0 3.69834896 -0.81364222 4.27081428 -3.25 6.9375 C-3.88550781 7.63746094 -4.52101562 8.33742187 -5.17578125 9.05859375 C-7.07727446 11.08223855 -8.99660415 13.07673998 -11 15 C-11.66 14.67 -12.32 14.34 -13 14 C-11.02108364 11.85393535 -9.04187901 9.70813786 -7.0625 7.5625 C-6.49853516 6.95083984 -5.93457031 6.33917969 -5.35351562 5.70898438 C-4.81533203 5.12568359 -4.27714844 4.54238281 -3.72265625 3.94140625 C-3.22515869 3.40201416 -2.72766113 2.86262207 -2.21508789 2.30688477 C-1.48918929 1.52614632 -0.75381738 0.75381738 0 0 Z " fill="#273A4E" transform="translate(249,226)"/>
<path d="M0 0 C0.66 0.33 1.32 0.66 2 1 C0.62184294 2.37215202 -0.77829151 3.72225767 -2.1875 5.0625 C-2.96480469 5.81660156 -3.74210937 6.57070312 -4.54296875 7.34765625 C-7 9 -7 9 -9.80078125 8.74609375 C-10.52652344 8.49988281 -11.25226563 8.25367188 -12 8 C-9.38928701 5.93318555 -6.66162161 4.06890393 -3.875 2.25 C-3.19179688 1.80140625 -2.50859375 1.3528125 -1.8046875 0.890625 C-0.91136719 0.44976562 -0.91136719 0.44976562 0 0 Z " fill="#293A52" transform="translate(361,132)"/>
<path d="M0 0 C4.455 0.99 4.455 0.99 9 2 C8.67 2.99 8.34 3.98 8 5 C1.375 4.25 1.375 4.25 -2 2 C-1.34 2 -0.68 2 0 2 C0 1.34 0 0.68 0 0 Z " fill="#D88C35" transform="translate(214,377)"/>
<path d="M0 0 C-0.75 7.75 -0.75 7.75 -3 10 C-3 8.68 -3 7.36 -3 6 C-3.66 6 -4.32 6 -5 6 C-4.625 3.5625 -4.625 3.5625 -4 1 C-2 0 -2 0 0 0 Z " fill="#509BB8" transform="translate(123,213)"/>
<path d="M0 0 C1.32 0.66 2.64 1.32 4 2 C2.92598892 4.91517292 2.22189824 6.77810176 0 9 C0 8.34 0 7.68 0 7 C-0.66 6.67 -1.32 6.34 -2 6 C-2 3 -2 3 0 0 Z " fill="#293F59" transform="translate(114,289)"/>
<path d="M0 0 C0.66 0.33 1.32 0.66 2 1 C1.67 7.93 1.34 14.86 1 22 C0.01 22.33 -0.98 22.66 -2 23 C-1.84152588 22.4337793 -1.68305176 21.86755859 -1.51977539 21.28417969 C-0.99214152 18.9654655 -0.795844 16.82641603 -0.68359375 14.453125 C-0.64169922 13.60878906 -0.59980469 12.76445312 -0.55664062 11.89453125 C-0.51732422 11.02183594 -0.47800781 10.14914063 -0.4375 9.25 C-0.39431641 8.36183594 -0.35113281 7.47367188 -0.30664062 6.55859375 C-0.20086385 4.37254037 -0.09877454 2.18637911 0 0 Z " fill="#F8EEE1" transform="translate(312,233)"/>
<path d="M0 0 C0.33 0.99 0.66 1.98 1 3 C1.66 3 2.32 3 3 3 C3.33 5.64 3.66 8.28 4 11 C3.67 10.01 3.34 9.02 3 8 C1.02 8.99 1.02 8.99 -1 10 C-0.67 6.7 -0.34 3.4 0 0 Z " fill="#65A9C0" transform="translate(117,216)"/>
<path d="M0 0 C-0.99 1.32 -1.98 2.64 -3 4 C-2.34 4.33 -1.68 4.66 -1 5 C-2.32 5.33 -3.64 5.66 -5 6 C-5.33 5.01 -5.66 4.02 -6 3 C-8.01508358 2.26676204 -8.01508358 2.26676204 -10 2 C-8.71211992 1.46987262 -7.41953322 0.9511671 -6.125 0.4375 C-5.40570313 0.14746094 -4.68640625 -0.14257812 -3.9453125 -0.44140625 C-2 -1 -2 -1 0 0 Z " fill="#DB9D57" transform="translate(305,370)"/>
<path d="M0 0 C0 1.98 0 3.96 0 6 C-1.32 6 -2.64 6 -4 6 C-4 5.34 -4 4.68 -4 4 C-4.66 3.67 -5.32 3.34 -6 3 C-2.25 0 -2.25 0 0 0 Z " fill="#314559" transform="translate(153,257)"/>
<path d="M0 0 C0 0.66 0 1.32 0 2 C-1.42913847 2.72505558 -2.86870658 3.42958435 -4.3125 4.125 C-5.11300781 4.51945313 -5.91351563 4.91390625 -6.73828125 5.3203125 C-7.48464844 5.54460937 -8.23101562 5.76890625 -9 6 C-9.99 5.34 -10.98 4.68 -12 4 C-10.3767313 3.3291288 -8.75132422 2.66342971 -7.125 2 C-6.22007812 1.62875 -5.31515625 1.2575 -4.3828125 0.875 C-2 0 -2 0 0 0 Z " fill="#F6EBDA" transform="translate(323,227)"/>
<path d="M0 0 C1.98 0 3.96 0 6 0 C6 0.33 6 0.66 6 1 C8.97 1.33 11.94 1.66 15 2 C15 2.33 15 2.66 15 3 C9.72 3 4.44 3 -1 3 C-0.67 2.01 -0.34 1.02 0 0 Z " fill="#253B4F" transform="translate(351,178)"/>
<path d="M0 0 C3.96 0.99 3.96 0.99 8 2 C6.03617993 3.50559539 4.21736634 4.89131683 2 6 C-0.125 5.0625 -0.125 5.0625 -2 4 C-1.34 4 -0.68 4 0 4 C0 2.68 0 1.36 0 0 Z " fill="#32465A" transform="translate(119,323)"/>
<path d="M0 0 C0 0.99 0 1.98 0 3 C-2.64738916 4.4606285 -3.89448334 5 -7 5 C-6.625 3.0625 -6.625 3.0625 -6 1 C-4 0 -4 0 0 0 Z " fill="#3B4C5C" transform="translate(223,323)"/>
<path d="M0 0 C0.99 0.33 1.98 0.66 3 1 C0.36 3.64 -2.28 6.28 -5 9 C-5.66 8.34 -6.32 7.68 -7 7 C-4.69 4.69 -2.38 2.38 0 0 Z " fill="#24394F" transform="translate(290,184)"/>
<path d="M0 0 C4.55384615 -0.36923077 4.55384615 -0.36923077 6.8125 1.5 C7.204375 1.995 7.59625 2.49 8 3 C5.04335481 4.4783226 2.25770263 4.06032783 -1 4 C-0.67 2.68 -0.34 1.36 0 0 Z " fill="#4F9CB6" transform="translate(226,118)"/>
<path d="M0 0 C1.65 0 3.3 0 5 0 C5 2.31 5 4.62 5 7 C4.67 6.34 4.34 5.68 4 5 C1.97536745 4.34786708 1.97536745 4.34786708 0 4 C0 2.68 0 1.36 0 0 Z " fill="#D89B55" transform="translate(382,265)"/>
<path d="M0 0 C0.66 0.33 1.32 0.66 2 1 C-0.13274079 3.34601486 -2.02537789 4.86264449 -5 6 C-7.75 6.125 -7.75 6.125 -10 6 C-6.87511433 3.47605388 -3.68685613 1.60298093 0 0 Z " fill="#EFE3CE" transform="translate(317,368)"/>
<path d="M0 0 C0.66 0 1.32 0 2 0 C2 3.63 2 7.26 2 11 C-1 8 -1 8 -1.07421875 5.95703125 C-0.71614583 3.97135417 -0.35807292 1.98567708 0 0 Z " fill="#22364B" transform="translate(397,192)"/>
<path d="M0 0 C0 3 0 3 -1.53125 4.82421875 C-2.1809375 5.43910156 -2.830625 6.05398438 -3.5 6.6875 C-4.1496875 7.31011719 -4.799375 7.93273437 -5.46875 8.57421875 C-5.9740625 9.04472656 -6.479375 9.51523437 -7 10 C-7.66 9.34 -8.32 8.68 -9 8 C-6.03 5.36 -3.06 2.72 0 0 Z " fill="#EFE3D2" transform="translate(347,346)"/>
<path d="M0 0 C5.27315333 0.4452885 10.01770224 1.08373163 15 3 C15 3.33 15 3.66 15 4 C9.1977825 4.36263859 5.36000789 3.25684543 0 1 C0 0.67 0 0.34 0 0 Z " fill="#35465B" transform="translate(332,178)"/>
<path d="M0 0 C0 4.38968456 -2.12805101 5.76905739 -5 9 C-5.99 8.67 -6.98 8.34 -8 8 C-5.36 5.36 -2.72 2.72 0 0 Z " fill="#F0E4D4" transform="translate(356,337)"/>
<path d="M0 0 C2.97 0.33 5.94 0.66 9 1 C5.3558226 3.4294516 3.28758728 3.16179575 -1 3 C-0.67 2.01 -0.34 1.02 0 0 Z " fill="#1D3149" transform="translate(150,328)"/>
<path d="M0 0 C0 1.32 0 2.64 0 4 C-1.65 4.33 -3.3 4.66 -5 5 C-5.33 4.01 -5.66 3.02 -6 2 C-2.25 0 -2.25 0 0 0 Z " fill="#DC9B53" transform="translate(256,195)"/>
<path d="M0 0 C0 0.33 0 0.66 0 1 C-1.98 1 -3.96 1 -6 1 C-6 1.66 -6 2.32 -6 3 C-7.96147874 4.38938077 -9.96166576 5.7260411 -12 7 C-9.69656113 0.26687101 -6.85869086 -0.25881852 0 0 Z " fill="#DB9D57" transform="translate(302,118)"/>
<path d="M0 0 C2.96175123 0.61277612 4.38058783 1.25372522 7 3 C3.78548731 4.60725635 0.56387464 4.05748185 -3 4 C-1.68 3.67 -0.36 3.34 1 3 C0.67 2.01 0.34 1.02 0 0 Z " fill="#192E45" transform="translate(164,325)"/>
<path d="M0 0 C0 0.99 0 1.98 0 3 C-1.98 3.33 -3.96 3.66 -6 4 C-6 3.01 -6 2.02 -6 1 C-4 0 -4 0 0 0 Z " fill="#2F4155" transform="translate(188,306)"/>
<path d="M0 0 C0.66 0 1.32 0 2 0 C2 1.65 2 3.3 2 5 C0.35 5 -1.3 5 -3 5 C-1.125 1.125 -1.125 1.125 0 0 Z " fill="#DA8F3C" transform="translate(305,369)"/>
<path d="M0 0 C-2.05233685 2.2477975 -3.00667261 3.0022242 -6 4 C-6.33 2.68 -6.66 1.36 -7 0 C-3.86650268 -1.04449911 -3.01031744 -0.93423645 0 0 Z " fill="#37495D" transform="translate(217,310)"/>
<path d="M0 0 C-0.66 1.32 -1.32 2.64 -2 4 C-3.32 4 -4.64 4 -6 4 C-6 3.01 -6 2.02 -6 1 C-4 0 -4 0 0 0 Z " fill="#314458" transform="translate(165,283)"/>
<path d="M0 0 C-1.28519565 2.86697492 -2.57129254 4.97607712 -5 7 C-5.66 7 -6.32 7 -7 7 C-3.86206897 0 -3.86206897 0 0 0 Z " fill="#DEE1E4" transform="translate(335,162)"/>
<path d="M0 0 C0.33 0.99 0.66 1.98 1 3 C-0.65 3.66 -2.3 4.32 -4 5 C-4 3.68 -4 2.36 -4 1 C-2 0 -2 0 0 0 Z " fill="#3C4E5F" transform="translate(205,314)"/>
<path d="M0 0 C1.65 0.33 3.3 0.66 5 1 C3.25 2.5625 3.25 2.5625 1 4 C-1.25 3.6875 -1.25 3.6875 -3 3 C-2.34 3 -1.68 3 -1 3 C-0.67 2.01 -0.34 1.02 0 0 Z " fill="#253A50" transform="translate(178,292)"/>
<path d="M0 0 C0 1.66666667 0 3.33333333 0 5 C-2.5 6.625 -2.5 6.625 -5 8 C-5 5 -5 5 -2.5 2.3125 C-1.675 1.549375 -0.85 0.78625 0 0 Z " fill="#35485F" transform="translate(123,279)"/>
<path d="M0 0 C-1.3943874 2.78877479 -3.56195086 4.09713238 -6 6 C-6.66 6.66 -7.32 7.32 -8 8 C-7.32253522 3.25774652 -4.9532836 0 0 0 Z " fill="#1D324C" transform="translate(149,261)"/>
<path d="M0 0 C0.33 0.99 0.66 1.98 1 3 C-0.65 4.65 -2.3 6.3 -4 8 C-4.66 7.67 -5.32 7.34 -6 7 C-4.02 4.69 -2.04 2.38 0 0 Z " fill="#ECDFC7" transform="translate(363,328)"/>
<path d="M0 0 C1.11375 0.3403125 1.11375 0.3403125 2.25 0.6875 C1.92 1.3475 1.59 2.0075 1.25 2.6875 C-1.39 2.6875 -4.03 2.6875 -6.75 2.6875 C-4.29511132 0.41445492 -3.41240272 -0.38777304 0 0 Z " fill="#405263" transform="translate(242.75,312.3125)"/>
<path d="M0 0 C1.65 0 3.3 0 5 0 C4.67 1.98 4.34 3.96 4 6 C3.67 5.34 3.34 4.68 3 4 C2.34 4 1.68 4 1 4 C0.67 2.68 0.34 1.36 0 0 Z " fill="#293E56" transform="translate(107,301)"/>
<path d="M0 0 C-1.3125 1.5 -1.3125 1.5 -3 3 C-3.99 3 -4.98 3 -6 3 C-6 2.01 -6 1.02 -6 0 C-3.50907189 -1.24546405 -2.58919267 -0.7767578 0 0 Z " fill="#2E4356" transform="translate(193,287)"/>
<path d="M0 0 C0.99 0.33 1.98 0.66 3 1 C1.02 2.98 -0.96 4.96 -3 7 C-3.66 6.67 -4.32 6.34 -5 6 C-3.35 4.02 -1.7 2.04 0 0 Z " fill="#E0E4E7" transform="translate(123,286)"/>
<path d="M0 0 C2.6875 1.375 2.6875 1.375 5 3 C5 3.33 5 3.66 5 4 C0.44615385 4.36923077 0.44615385 4.36923077 -1.8125 2.5 C-2.4003125 1.7575 -2.4003125 1.7575 -3 1 C-2.01 0.67 -1.02 0.34 0 0 Z " fill="#F5E9DA" transform="translate(213,220)"/>
<path d="M0 0 C0.66 0.33 1.32 0.66 2 1 C-1.465 3.97 -1.465 3.97 -5 7 C-5 5.68 -5 4.36 -5 3 C-2.625 1.1875 -2.625 1.1875 0 0 Z " fill="#566274" transform="translate(361,132)"/>
</svg>
